<svg xmlns="http://www.w3.org/2000/svg" version="1.1" xmlns:xlink="http://www.w3.org/1999/xlink" xmlns:svgjs="http://svgjs.com/svgjs" width="1920" height="1080" preserveAspectRatio="none" viewBox="0 0 1920 1080"><g mask="url(&quot;#SvgjsMask1024&quot;)" fill="none"><path d="M 0,24 C 128,44.4 384,120.4 640,126 C 896,131.6 1024,54.2 1280,52 C 1536,49.8 1792,102.4 1920,115L1920 1080L0 1080z" fill="rgba(107, 114, 128, 0.41)"></path><path d="M 0,308 C 128,332.2 384,441.2 640,429 C 896,416.8 1024,257.6 1280,247 C 1536,236.4 1792,350.2 1920,376L1920 1080L0 1080z" fill="rgba(107, 114, 128, 0.58)"></path><path d="M 0,474 C 128,492.2 384,563.2 640,565 C 896,566.8 1024,467.8 1280,483 C 1536,498.2 1792,609.4 1920,641L1920 1080L0 1080z" fill="rgba(107, 114, 128, 0.75)"></path><path d="M 0,691 C 128,722.6 384,844.4 640,849 C 896,853.6 1024,723.6 1280,714 C 1536,704.4 1792,783.6 1920,801L1920 1080L0 1080z" fill="rgba(107, 114, 128, 0.92)"></path><path d="M 0,888 C 128,914 384,1016.6 640,1018 C 896,1019.4 1024,897 1280,895 C 1536,893 1792,985.4 1920,1008L1920 1080L0 1080z" fill="rgba(107, 114, 128, 1)"></path></g><defs><mask id="SvgjsMask1024"><rect width="1920" height="1080" fill="#ffffff"></rect></mask></defs></svg>